<svg width="130" height="24" viewBox="0 0 130 24" fill="none" xmlns="http://www.w3.org/2000/svg">
<g clip-path="url(#clip0_73_301)">
<path d="M35.6967 23.8079C30.8945 23.8079 28.4596 22.0854 28.4596 18.6872V18.6547C28.4596 16.4382 29.3865 14.9055 31.2923 13.9721C33.0473 13.1037 34.8803 12.7501 39.4628 12.3952C43.797 12.0377 44.8968 11.8284 44.8968 10.7377C44.8968 9.57294 43.6722 8.98144 41.2568 8.98144C38.1979 8.98144 36.7289 9.67304 36.5209 11.2187H29.0121C29.5906 6.50754 33.5933 4.11814 40.9123 4.11814C44.8409 4.11814 47.4955 4.69534 49.2674 5.93554C51.09 7.21084 51.9753 9.25834 51.9753 12.1963V23.193H45.0957V19.5309L44.8448 19.4685C43.3472 22.2674 40.0998 23.8079 35.698 23.8079H35.6967ZM44.7083 14.5675C44.1831 15.0758 43.0898 15.406 41.054 15.6699C38.7946 15.8909 37.6636 16.1132 37.0227 16.4642C36.4273 16.7918 36.1621 17.1987 36.1621 17.785V17.8175C36.1621 18.7795 36.9811 19.2462 38.6672 19.2462C42.0056 19.2397 44.9345 17.1896 44.9345 14.86V14.3478L44.7083 14.5675ZM68.5269 23.193L77.9181 4.64204H71.3726C70.4184 4.64204 69.7554 5.06064 69.3459 5.91994L64.9987 15.0316L60.6515 5.91994C60.242 5.05934 59.5803 4.64204 58.6248 4.64204H52.0793L61.4458 23.193H68.5269ZM89.3958 23.8079C85.0187 23.8079 81.7791 22.8979 79.768 21.1039C78.039 19.5608 77.1628 17.3066 77.1628 14.4024C77.1628 11.4982 78.2444 8.85664 80.2919 7.06264C82.5123 5.11524 85.8637 4.08694 89.9834 4.08694C94.1031 4.08694 97.3011 5.12954 99.4318 7.18484C101.296 8.98404 102.281 11.5346 102.281 14.5623C102.281 15.0836 102.261 15.4983 102.249 15.6946H84.4623L84.5065 15.8623C85.0213 17.837 86.7282 18.7561 89.8794 18.7561C92.0686 18.7561 93.2685 18.3999 93.9913 17.5289H102.036C100.823 21.7539 96.6849 23.8092 89.3958 23.8092V23.8079ZM89.8846 9.20374C87.061 9.21024 85.2969 10.1475 84.6404 11.9883L84.5767 12.1664H94.848L94.8064 12C94.3202 10.0396 92.8486 9.20244 89.8846 9.20244V9.20374ZM25.6659 23.193V0.192139H18.3443V6.66744C18.3443 7.62684 17.5669 8.40424 16.6075 8.40424H7.3853V0.192139H0V23.193H7.3853V16.8165C7.3853 15.8571 8.1627 15.0797 9.1221 15.0797H18.3443V23.193H25.6659ZM129.999 23.1995V12.5564C129.999 10.0227 129.035 7.87384 127.214 6.33984C125.492 4.89034 123.076 4.09214 120.413 4.09214C116.676 4.09214 113.729 5.84454 112.527 8.77864L112.269 8.72794V4.64074H104.702V23.1917H112.269V15.211C112.269 12.1196 114.241 10.2749 117.546 10.2749C120.645 10.2749 122.496 11.9636 122.496 14.7924V23.1982H129.999V23.1995Z" fill="white"/>
</g>
<defs>
<clipPath id="clip0_73_301">
<rect width="130" height="23.6158" fill="white" transform="translate(0 0.192139)"/>
</clipPath>
</defs>
</svg>
